<?xml version="1.0" standalone="no"?>
<!DOCTYPE svg PUBLIC "-//W3C//DTD SVG 20010904//EN"
 "http://www.w3.org/TR/2001/REC-SVG-20010904/DTD/svg10.dtd">
<svg version="1.0" xmlns="http://www.w3.org/2000/svg"
 width="2000.000000pt" height="1731.000000pt" viewBox="0 0 2000.000000 1731.000000"
 preserveAspectRatio="xMidYMid meet">

<g transform="translate(0.000000,1731.000000) scale(0.100000,-0.100000)"
fill="#000000" stroke="none">
<path d="M4495 17286 c-44 -8 -154 -23 -245 -35 -309 -41 -465 -62 -600 -81
-74 -10 -207 -28 -295 -40 -205 -27 -411 -55 -597 -80 -82 -11 -214 -29 -295
-40 -227 -31 -419 -56 -633 -85 -107 -14 -226 -30 -265 -36 -38 -5 -119 -16
-180 -24 -60 -8 -159 -21 -220 -29 -60 -9 -261 -36 -445 -60 -482 -65 -490
-66 -540 -92 -121 -61 -192 -207 -161 -331 7 -26 116 -244 243 -483 127 -239
436 -820 686 -1290 250 -470 476 -895 502 -945 26 -49 140 -263 252 -475 242
-454 388 -730 1013 -1905 921 -1733 1228 -2311 1270 -2390 24 -44 248 -467
500 -940 251 -473 502 -945 558 -1049 55 -104 116 -207 135 -228 18 -20 58
-49 88 -64 88 -43 149 -38 399 30 116 32 224 62 240 66 52 13 886 240 975 265
47 13 279 76 515 140 237 64 468 127 515 140 91 26 925 253 975 265 17 4 140
38 275 75 135 37 274 75 310 84 36 10 129 35 208 56 122 33 145 36 156 24 7
-8 538 -890 1179 -1961 927 -1547 1175 -1953 1208 -1982 51 -43 126 -69 199
-69 54 1 120 22 605 193 142 51 329 116 1170 410 176 61 363 126 415 145 52
19 181 64 285 100 105 37 240 84 300 105 105 37 332 116 573 201 61 21 163 57
225 78 61 22 189 67 282 100 94 33 314 110 490 171 176 62 532 186 790 277
259 90 565 198 680 238 116 40 296 103 400 140 191 67 311 109 526 183 64 22
137 50 162 62 56 26 112 86 139 148 28 62 28 172 0 235 -12 26 -97 154 -190
284 -93 131 -346 488 -562 793 -216 305 -464 654 -550 775 -157 222 -326 459
-749 1055 -127 179 -231 327 -231 330 0 3 28 13 63 23 58 16 370 101 482 132
126 34 714 193 1210 328 132 36 375 102 540 147 164 44 318 89 341 99 55 25
120 91 146 149 32 71 31 181 -2 247 -34 69 -2505 3151 -2554 3187 -85 62 -177
65 -386 13 -135 -33 -183 -45 -395 -94 -836 -195 -2310 -546 -2340 -557 -108
-42 -186 -158 -187 -275 0 -35 7 -83 16 -107 12 -34 451 -661 1111 -1587 39
-55 141 -199 227 -320 86 -121 283 -398 437 -615 154 -217 281 -398 281 -401
0 -11 -52 -26 -565 -164 -27 -7 -126 -34 -220 -60 -93 -25 -192 -52 -220 -60
-27 -7 -135 -37 -240 -65 -104 -28 -212 -58 -240 -65 -27 -8 -151 -41 -275
-75 -124 -34 -247 -67 -275 -75 -27 -7 -135 -37 -240 -65 -104 -28 -212 -58
-240 -65 -27 -8 -126 -35 -220 -60 -93 -26 -183 -51 -200 -55 -16 -4 -149 -40
-295 -80 -146 -39 -287 -78 -315 -85 -27 -8 -126 -35 -220 -60 -93 -26 -183
-51 -200 -55 -16 -4 -149 -40 -295 -80 -146 -39 -353 -96 -460 -125 -107 -29
-303 -82 -435 -118 -132 -36 -373 -102 -535 -146 -162 -44 -311 -85 -330 -91
-19 -5 -37 -6 -41 -2 -4 4 -466 772 -1026 1707 -3428 5719 -4200 7003 -4231
7038 -78 85 -186 111 -357 83z m387 -1293 c224 -373 1352 -2255 2508 -4183
1156 -1928 2102 -3509 2103 -3514 2 -10 -70 -33 -228 -76 -38 -10 -189 -51
-335 -90 -146 -40 -278 -76 -295 -80 -16 -4 -106 -29 -200 -55 -93 -25 -192
-52 -220 -60 -27 -7 -135 -37 -240 -65 -104 -28 -212 -58 -240 -65 -27 -8
-151 -41 -275 -75 -124 -34 -256 -70 -295 -80 -119 -32 -419 -114 -640 -175
-115 -31 -223 -61 -240 -65 -26 -7 -390 -105 -645 -175 -47 -13 -88 -20 -91
-17 -4 4 -102 187 -219 407 -117 220 -234 441 -260 490 -26 50 -215 405 -420
790 -205 385 -412 774 -460 865 -219 413 -847 1594 -890 1675 -26 50 -140 263
-253 475 -167 315 -450 847 -757 1425 -54 101 -610 1147 -1138 2140 -193 363
-352 667 -354 675 -3 15 5 16 282 54 63 8 284 38 490 66 206 28 425 57 485 65
91 12 344 46 930 125 39 6 135 18 215 29 80 11 316 42 525 71 209 28 414 55
455 61 41 5 116 16 165 23 50 8 99 14 111 15 17 1 92 -119 426 -676z m13255
-3803 c557 -695 1013 -1268 1013 -1272 0 -9 -65 -28 -345 -103 -281 -76 -285
-77 -480 -130 -93 -26 -192 -53 -220 -60 -387 -105 -510 -139 -1135 -309 -128
-35 -168 -42 -176 -33 -6 7 -123 170 -259 362 -315 445 -791 1117 -1259 1775
-201 283 -366 517 -366 520 0 7 2172 519 2194 517 13 -1 377 -448 1033 -1267z
m-1456 -2797 c145 -205 401 -565 1337 -1885 369 -520 673 -952 674 -958 2 -7
-34 -25 -82 -42 -47 -16 -128 -45 -180 -63 -52 -19 -180 -64 -285 -100 -104
-37 -239 -84 -300 -105 -109 -38 -358 -125 -570 -200 -60 -21 -155 -54 -210
-73 -55 -20 -183 -65 -285 -101 -102 -35 -360 -126 -575 -201 -214 -75 -536
-188 -715 -250 -179 -62 -442 -155 -585 -205 -143 -50 -278 -98 -300 -105 -22
-7 -119 -41 -215 -75 -96 -34 -224 -79 -285 -100 -60 -21 -189 -66 -285 -100
-96 -34 -276 -97 -400 -140 -124 -43 -310 -108 -415 -145 -391 -137 -455 -159
-459 -154 -24 25 -2105 3514 -2099 3520 4 4 78 26 163 49 222 60 232 62 480
130 124 34 248 67 275 75 28 7 136 37 240 65 105 29 204 56 220 60 17 4 149
40 295 80 579 158 1131 308 1195 325 28 7 127 34 220 60 94 25 193 52 220 60
28 7 160 43 295 80 135 36 268 72 295 80 28 7 127 34 220 60 94 25 193 52 220
60 28 7 136 37 240 65 105 28 213 58 240 65 28 8 151 41 275 75 124 34 248 67
275 75 28 7 136 37 240 65 105 28 222 60 260 71 39 10 99 27 135 38 36 10 74
19 85 20 15 1 51 -43 146 -176z"/>
<path d="M4420 1440 l0 -1380 125 0 125 0 0 1380 0 1380 -125 0 -125 0 0
-1380z"/>
<path d="M15970 1440 l0 -1380 125 0 125 0 0 1380 0 1380 -125 0 -125 0 0
-1380z"/>
<path d="M5970 2091 c-130 -24 -270 -81 -389 -158 -88 -57 -258 -236 -315
-331 -182 -305 -195 -701 -35 -1024 142 -287 423 -500 728 -552 347 -59 675
50 914 304 37 38 69 70 72 70 3 0 5 -76 5 -170 l0 -170 120 0 120 0 0 995 0
995 -120 0 -120 0 0 -180 c0 -99 -4 -180 -9 -180 -4 0 -20 17 -35 39 -39 56
-161 171 -235 220 -153 104 -284 142 -501 147 -85 1 -175 -1 -200 -5z m435
-261 c250 -79 443 -276 525 -535 17 -54 23 -104 27 -215 5 -128 3 -157 -17
-235 -67 -277 -250 -473 -529 -568 -70 -24 -108 -30 -206 -34 -225 -9 -400 53
-561 201 -165 150 -274 393 -274 611 0 216 113 469 273 611 99 87 250 162 370
184 92 16 312 5 392 -20z"/>
<path d="M8309 2076 c-36 -12 -92 -41 -125 -63 -60 -41 -171 -151 -213 -211
-13 -18 -25 -31 -28 -28 -3 3 -4 66 -4 140 l2 136 -131 0 -130 0 0 -995 0
-995 129 0 129 0 5 587 c5 635 9 683 61 840 88 264 306 421 497 359 28 -10 52
-16 54 -14 26 30 122 205 116 211 -5 5 -39 20 -75 33 -90 32 -195 33 -287 0z"/>
<path d="M9655 2086 c-351 -68 -659 -336 -777 -675 -89 -259 -71 -578 47 -818
178 -362 524 -583 915 -583 280 0 524 105 730 314 35 36 68 66 72 66 4 0 8
-74 8 -165 l0 -165 120 0 120 0 0 995 0 995 -120 0 -120 0 0 -182 -1 -183 -30
35 c-177 201 -306 290 -509 350 -96 28 -347 37 -455 16z m450 -256 c266 -84
471 -303 535 -574 28 -119 29 -309 0 -421 -68 -272 -268 -478 -550 -567 -65
-20 -95 -23 -225 -23 -137 1 -157 3 -230 28 -128 45 -219 102 -315 197 -211
211 -293 502 -220 784 77 301 328 544 616 596 89 16 310 5 389 -20z"/>
<path d="M14325 2093 c-148 -23 -325 -96 -431 -176 -147 -112 -284 -294 -352
-467 -54 -139 -67 -215 -66 -400 0 -160 2 -183 27 -273 84 -297 275 -544 512
-660 304 -149 725 -142 1009 17 92 52 205 145 271 224 57 68 155 221 155 241
0 6 -46 34 -102 62 -93 47 -103 50 -113 34 -5 -9 -38 -56 -72 -104 -113 -161
-235 -251 -423 -312 -80 -27 -115 -32 -220 -36 -159 -6 -242 10 -370 73 -82
40 -108 60 -190 143 -81 81 -103 111 -143 191 -49 101 -83 225 -89 325 l-3 60
898 3 897 2 0 58 c0 86 -28 235 -64 337 -108 310 -371 554 -686 636 -68 17
-118 22 -250 25 -91 1 -178 0 -195 -3z m330 -245 c131 -22 331 -130 415 -226
23 -26 59 -76 80 -112 41 -70 104 -236 94 -251 -7 -11 -1481 -12 -1488 -1 -7
12 37 132 76 207 74 143 173 244 306 313 160 83 314 104 517 70z"/>
<path d="M11300 2044 c0 -6 233 -515 450 -984 32 -69 124 -269 205 -445 81
-176 163 -354 182 -395 20 -41 44 -94 54 -117 14 -33 24 -43 41 -43 20 1 41
41 185 358 89 196 197 431 239 522 41 91 106 233 144 315 37 83 134 293 214
469 80 175 146 320 146 322 0 2 -60 4 -132 4 l-133 0 -91 -203 c-311 -690
-568 -1246 -574 -1242 -6 4 -209 441 -578 1245 l-90 195 -131 3 c-72 1 -131 0
-131 -4z"/>
</g>
</svg>
